<?xml version="1.0" encoding="utf-8"?>
<svg version="1.1" id="Layer_1" xmlns="http://www.w3.org/2000/svg" xmlns:xlink="http://www.w3.org/1999/xlink" x="0px" y="0px"
	 width="77.1px" height="77.1px" viewBox="0 0 77.1 77.1" style="enable-background:new 0 0 77.1 77.1;" xml:space="preserve">
<style type="text/css">
	.st36{fill:#fff;}
</style>
<g>
	<g>
		<path class="st36" d="M18.6,38.9c0-11,9-20,20-20s20,9,20,20s-9,20-20,20S18.6,50,18.6,38.9z M38.6,28.3c-2.9,0-3.3,0-4.4,0.1
			c-1.1,0.1-1.9,0.2-2.6,0.5c-0.7,0.3-1.3,0.6-1.9,1.2c-0.6,0.6-1,1.2-1.2,1.9c-0.3,0.7-0.4,1.5-0.5,2.6c-0.1,1.1-0.1,1.5-0.1,4.4
			s0,3.3,0.1,4.4c0.1,1.1,0.2,1.9,0.5,2.6c0.3,0.7,0.6,1.3,1.2,1.9c0.6,0.6,1.2,1,1.9,1.2c0.7,0.3,1.5,0.4,2.6,0.5
			c1.1,0.1,1.5,0.1,4.4,0.1c2.9,0,3.3,0,4.4-0.1c1.1-0.1,1.9-0.2,2.6-0.5c0.7-0.3,1.3-0.6,1.9-1.2c0.6-0.6,1-1.2,1.2-1.9
			c0.3-0.7,0.4-1.5,0.5-2.6c0.1-1.1,0.1-1.5,0.1-4.4s0-3.3-0.1-4.4c-0.1-1.1-0.2-1.9-0.5-2.6c-0.3-0.7-0.6-1.3-1.2-1.9
			c-0.6-0.6-1.2-1-1.9-1.2c-0.7-0.3-1.5-0.4-2.6-0.5C41.8,28.3,41.5,28.3,38.6,28.3L38.6,28.3z"/>
		<path class="st36" d="M37.6,30.2c0.3,0,0.6,0,1,0c2.8,0,3.2,0,4.3,0.1c1,0,1.6,0.2,2,0.4c0.5,0.2,0.9,0.4,1.2,0.8
			c0.4,0.4,0.6,0.7,0.8,1.2c0.1,0.4,0.3,0.9,0.4,2c0.1,1.1,0.1,1.5,0.1,4.3c0,2.8,0,3.2-0.1,4.3c0,1-0.2,1.6-0.4,2
			c-0.2,0.5-0.4,0.9-0.8,1.2c-0.4,0.4-0.7,0.6-1.2,0.8c-0.4,0.1-0.9,0.3-2,0.4c-1.1,0.1-1.5,0.1-4.3,0.1c-2.8,0-3.2,0-4.3-0.1
			c-1,0-1.6-0.2-2-0.4c-0.5-0.2-0.9-0.4-1.2-0.8c-0.4-0.4-0.6-0.7-0.8-1.2c-0.1-0.4-0.3-0.9-0.4-2c-0.1-1.1-0.1-1.5-0.1-4.3
			c0-2.8,0-3.2,0.1-4.3c0-1,0.2-1.6,0.4-2c0.2-0.5,0.4-0.9,0.8-1.2c0.4-0.4,0.7-0.6,1.2-0.8c0.4-0.1,0.9-0.3,2-0.4
			C35.2,30.2,35.6,30.2,37.6,30.2L37.6,30.2z M44.3,32c-0.7,0-1.3,0.6-1.3,1.3c0,0.7,0.6,1.3,1.3,1.3c0.7,0,1.3-0.6,1.3-1.3
			C45.5,32.5,45,32,44.3,32z M38.6,33.4c-3,0-5.5,2.5-5.5,5.5c0,3,2.5,5.5,5.5,5.5s5.5-2.5,5.5-5.5C44,35.9,41.6,33.4,38.6,33.4z"/>
		<path class="st36" d="M38.6,35.4c2,0,3.6,1.6,3.6,3.6c0,2-1.6,3.6-3.6,3.6c-2,0-3.6-1.6-3.6-3.6C35,37,36.6,35.4,38.6,35.4z"/>
	</g>
</g>
</svg>
