<?xml version="1.0" encoding="utf-8"?>
<!-- Generator: Adobe Illustrator 26.0.1, SVG Export Plug-In . SVG Version: 6.00 Build 0)  -->
<svg version="1.1" id="Layer_1" xmlns="http://www.w3.org/2000/svg" xmlns:xlink="http://www.w3.org/1999/xlink" x="0px" y="0px"
	 width="77.1px" height="77.1px" viewBox="0 0 77.1 77.1" style="enable-background:new 0 0 77.1 77.1;" xml:space="preserve">
<style type="text/css">
	.st0{fill:#8986D3;stroke:#FFFFFF;stroke-width:1.1277;stroke-miterlimit:10;}
	.st1{fill:#FAEFF6;}
	.st2{fill:#48233C;}
	.st3{fill:none;stroke:#231F20;stroke-width:3;stroke-miterlimit:10;}
	.st4{fill:#D7E8BF;}
	.st5{fill:#217091;}
	.st6{fill:#B30045;}
	.st7{fill:#568616;}
	.st8{fill:#F46500;}
	.st9{fill:#004A7F;}
	.st10{fill:#642547;}
	.st11{fill:#611E43;}
	.st12{fill:none;stroke:#FFFFFF;stroke-miterlimit:10;}
	.st13{clip-path:url(#SVGID_00000025414758578018873460000005012975772398298036_);}
	.st14{fill:#FFFFFF;}
	.st15{fill:#D9FCA2;}
	.st16{fill:#FFE592;}
	.st17{fill:#D4FFFB;}
	.st18{fill:#F8F5FC;}
	.st19{fill:#EF5800;}
	.st20{fill:#AACC02;}
	.st21{fill:#292F36;}
	.st22{clip-path:url(#SVGID_00000063601361446346216230000009245996777218056848_);}
	.st23{fill:none;stroke:#48233C;stroke-miterlimit:10;}
	.st24{clip-path:url(#SVGID_00000050643911441738198540000016747043223981292192_);}
	.st25{fill:#F03A48;}
	.st26{fill:#BDC4A7;}
	.st27{fill:#F3F9D2;}
	.st28{fill:#990B15;}
	.st29{fill:#D79233;}
	.st30{fill:#F0A200;}
	.st31{fill:#DEFF33;}
	.st32{fill:none;stroke:#AACC02;stroke-miterlimit:10;}
	.st33{fill:#462036;}
	.st34{fill:#8E2344;}
	.st35{fill:#F56E00;}
	.st36{fill:#2F5874;}
	.st37{fill:#EBB11E;}
	.st38{fill:#020202;}
	.st39{fill:#8EB63E;}
	.st40{fill:#2F3E13;}
	.st41{fill:#901319;}
	.st42{fill:#E95700;}
	.st43{opacity:0.7;}
	.st44{opacity:0.8;clip-path:url(#SVGID_00000161616293159176662380000014641883732683121837_);}
	.st45{fill:#0B0201;}
	.st46{fill:none;stroke:#48233C;stroke-width:2.5754;stroke-miterlimit:10;}
	.st47{fill:#4E203D;}
	.st48{clip-path:url(#SVGID_00000009584327958854429280000001996649698719334811_);}
	.st49{clip-path:url(#SVGID_00000080165292235959491670000007582259675607068055_);}
	.st50{fill:none;stroke:#FFFFFF;stroke-width:2;stroke-miterlimit:10;}
	.st51{clip-path:url(#SVGID_00000124867621019264912390000012968119246316080783_);}
	.st52{clip-path:url(#SVGID_00000169541864073793130010000006977673215859972272_);}
	.st53{fill:none;stroke:#FAEFF6;stroke-width:2.5754;stroke-miterlimit:10;}
	.st54{fill:#917787;}
	.st55{fill:#857B90;}
	.st56{fill-rule:evenodd;clip-rule:evenodd;fill:#FAEFF6;}
	.st57{fill:#C09546;}
	.st58{clip-path:url(#SVGID_00000130606867566362104210000016834544355648068269_);}
	.st59{clip-path:url(#SVGID_00000108285340519629353320000006037914392583165105_);}
	.st60{clip-path:url(#SVGID_00000083050931516185353360000011249390276826454968_);}
	.st61{fill:none;stroke:#462036;stroke-miterlimit:10;}
	.st62{fill:none;stroke:#292F36;stroke-width:2;stroke-miterlimit:10;}
	.st63{clip-path:url(#SVGID_00000100359206800520201320000016509598406277937282_);}
	.st64{clip-path:url(#SVGID_00000077282330751974625250000009090860552768081311_);}
	.st65{fill:none;stroke:#DEFF33;stroke-miterlimit:10;}
	.st66{opacity:0.8;clip-path:url(#SVGID_00000124137523960061728680000004119110193730533550_);}
	.st67{opacity:0.8;clip-path:url(#SVGID_00000042002598155607976850000013453171242072544142_);}
	.st68{clip-path:url(#SVGID_00000097464661126530304810000018087485917580807046_);}
	.st69{opacity:0.8;clip-path:url(#SVGID_00000152233928104328923200000005963708009847842994_);}
	.st70{opacity:0.8;clip-path:url(#SVGID_00000029020087894875512160000006027154458342212230_);}
	.st71{clip-path:url(#SVGID_00000120522636490674492880000002842456933329452954_);}
	.st72{clip-path:url(#SVGID_00000065789004884294136040000000623798499156744097_);}
	.st73{opacity:0.8;clip-path:url(#SVGID_00000123426543250639093040000011911935056850260396_);}
	.st74{clip-path:url(#SVGID_00000070085446581013771970000010091636825648057478_);}
	.st75{clip-path:url(#SVGID_00000065066998806866488360000010764564291047426199_);}
	.st76{clip-path:url(#SVGID_00000025411408837588378480000016178916989697435577_);}
	.st77{fill:none;stroke:#FAEFF6;stroke-width:2;stroke-miterlimit:10;}
	.st78{clip-path:url(#SVGID_00000151517105575768200560000015004809915421164677_);}
	.st79{fill:none;stroke:#000000;stroke-width:4.2234;stroke-miterlimit:10;}
	.st80{fill:none;}
	.st81{clip-path:url(#SVGID_00000047771888135017327360000008190095028296397456_);}
	.st82{opacity:0.8;clip-path:url(#SVGID_00000015321048226132363240000001900827363638636221_);}
	.st83{clip-path:url(#SVGID_00000092437202173697062230000014693709233638709418_);}
	.st84{fill:#8986D3;stroke:#FFFFFF;stroke-width:2.8442;stroke-miterlimit:10;}
	.st85{clip-path:url(#SVGID_00000072981900419792033790000012007392420262216607_);}
	.st86{clip-path:url(#SVGID_00000154400800527002849290000007443630018563095474_);fill:#48233C;}
	.st87{clip-path:url(#SVGID_00000154400800527002849290000007443630018563095474_);}
	.st88{clip-path:url(#SVGID_00000133493548312573789670000015548835163382356905_);}
	.st89{clip-path:url(#SVGID_00000053506062080503669130000004060827347317605516_);}
	.st90{clip-path:url(#SVGID_00000057826747378039662020000004248558416092633772_);}
	.st91{clip-path:url(#SVGID_00000005952552513105672850000006074869069054543523_);}
	.st92{clip-path:url(#SVGID_00000176011389379007929140000007581645537023223715_);}
</style>
<rect class="st31" width="77.1" height="77.1"/>
<g>
	<g>
		<path class="st36" d="M18.6,38.9c0-11,9-20,20-20s20,9,20,20s-9,20-20,20S18.6,50,18.6,38.9z M38.6,28.3c-2.9,0-3.3,0-4.4,0.1
			c-1.1,0.1-1.9,0.2-2.6,0.5c-0.7,0.3-1.3,0.6-1.9,1.2c-0.6,0.6-1,1.2-1.2,1.9c-0.3,0.7-0.4,1.5-0.5,2.6c-0.1,1.1-0.1,1.5-0.1,4.4
			s0,3.3,0.1,4.4c0.1,1.1,0.2,1.9,0.5,2.6c0.3,0.7,0.6,1.3,1.2,1.9c0.6,0.6,1.2,1,1.9,1.2c0.7,0.3,1.5,0.4,2.6,0.5
			c1.1,0.1,1.5,0.1,4.4,0.1c2.9,0,3.3,0,4.4-0.1c1.1-0.1,1.9-0.2,2.6-0.5c0.7-0.3,1.3-0.6,1.9-1.2c0.6-0.6,1-1.2,1.2-1.9
			c0.3-0.7,0.4-1.5,0.5-2.6c0.1-1.1,0.1-1.5,0.1-4.4s0-3.3-0.1-4.4c-0.1-1.1-0.2-1.9-0.5-2.6c-0.3-0.7-0.6-1.3-1.2-1.9
			c-0.6-0.6-1.2-1-1.9-1.2c-0.7-0.3-1.5-0.4-2.6-0.5C41.8,28.3,41.5,28.3,38.6,28.3L38.6,28.3z"/>
		<path class="st36" d="M37.6,30.2c0.3,0,0.6,0,1,0c2.8,0,3.2,0,4.3,0.1c1,0,1.6,0.2,2,0.4c0.5,0.2,0.9,0.4,1.2,0.8
			c0.4,0.4,0.6,0.7,0.8,1.2c0.1,0.4,0.3,0.9,0.4,2c0.1,1.1,0.1,1.5,0.1,4.3c0,2.8,0,3.2-0.1,4.3c0,1-0.2,1.6-0.4,2
			c-0.2,0.5-0.4,0.9-0.8,1.2c-0.4,0.4-0.7,0.6-1.2,0.8c-0.4,0.1-0.9,0.3-2,0.4c-1.1,0.1-1.5,0.1-4.3,0.1c-2.8,0-3.2,0-4.3-0.1
			c-1,0-1.6-0.2-2-0.4c-0.5-0.2-0.9-0.4-1.2-0.8c-0.4-0.4-0.6-0.7-0.8-1.2c-0.1-0.4-0.3-0.9-0.4-2c-0.1-1.1-0.1-1.5-0.1-4.3
			c0-2.8,0-3.2,0.1-4.3c0-1,0.2-1.6,0.4-2c0.2-0.5,0.4-0.9,0.8-1.2c0.4-0.4,0.7-0.6,1.2-0.8c0.4-0.1,0.9-0.3,2-0.4
			C35.2,30.2,35.6,30.2,37.6,30.2L37.6,30.2z M44.3,32c-0.7,0-1.3,0.6-1.3,1.3c0,0.7,0.6,1.3,1.3,1.3c0.7,0,1.3-0.6,1.3-1.3
			C45.5,32.5,45,32,44.3,32z M38.6,33.4c-3,0-5.5,2.5-5.5,5.5c0,3,2.5,5.5,5.5,5.5s5.5-2.5,5.5-5.5C44,35.9,41.6,33.4,38.6,33.4z"/>
		<path class="st36" d="M38.6,35.4c2,0,3.6,1.6,3.6,3.6c0,2-1.6,3.6-3.6,3.6c-2,0-3.6-1.6-3.6-3.6C35,37,36.6,35.4,38.6,35.4z"/>
	</g>
</g>
</svg>
