<?xml version="1.0" encoding="utf-8"?>
<!-- Generator: Adobe Illustrator 26.0.1, SVG Export Plug-In . SVG Version: 6.00 Build 0)  -->
<svg version="1.1" id="Layer_1" xmlns="http://www.w3.org/2000/svg" xmlns:xlink="http://www.w3.org/1999/xlink" x="0px" y="0px"
	 width="40px" height="40px" viewBox="0 0 40 40" style="enable-background:new 0 0 40 40;" xml:space="preserve">
<style type="text/css">
	.st0{fill:#E95700;}
	.st1{fill:#8986D3;stroke:#FFFFFF;stroke-width:1.1277;stroke-miterlimit:10;}
	.st2{fill:#FAEFF6;}
	.st3{fill:#48233C;}
	.st4{fill:none;stroke:#231F20;stroke-width:3;stroke-miterlimit:10;}
	.st5{fill:#D7E8BF;}
	.st6{fill:#217091;}
	.st7{fill:#B30045;}
	.st8{fill:#568616;}
	.st9{fill:#F46500;}
	.st10{fill:#004A7F;}
	.st11{fill:#642547;}
	.st12{fill:#611E43;}
	.st13{fill:none;stroke:#FFFFFF;stroke-miterlimit:10;}
	.st14{clip-path:url(#SVGID_00000052076104371509192550000017067735865564639139_);}
	.st15{fill:#FFFFFF;}
	.st16{fill:#D9FCA2;}
	.st17{fill:#FFE592;}
	.st18{fill:#D4FFFB;}
	.st19{fill:#F8F5FC;}
	.st20{fill:#EF5800;}
	.st21{fill:#AACC02;}
	.st22{fill:#292F36;}
	.st23{clip-path:url(#SVGID_00000067916034662654239580000005228131343897201079_);}
	.st24{fill:none;stroke:#48233C;stroke-miterlimit:10;}
	.st25{clip-path:url(#SVGID_00000085241332640628207770000009858367366862084004_);}
	.st26{fill:#F03A48;}
	.st27{fill:#BDC4A7;}
	.st28{fill:#F3F9D2;}
	.st29{fill:#990B15;}
	.st30{fill:#D79233;}
	.st31{fill:#F0A200;}
	.st32{fill:#DEFF33;}
	.st33{fill:none;stroke:#AACC02;stroke-miterlimit:10;}
	.st34{fill:#462036;}
	.st35{fill:#8E2344;}
	.st36{fill:#F56E00;}
	.st37{fill:#2F5874;}
	.st38{fill:#EBB11E;}
	.st39{fill:#020202;}
	.st40{fill:#8EB63E;}
	.st41{fill:#2F3E13;}
	.st42{fill:#901319;}
	.st43{opacity:0.7;}
	.st44{opacity:0.8;clip-path:url(#SVGID_00000037676720099540882070000015780234010500842901_);}
	.st45{fill:#0B0201;}
	.st46{fill:none;stroke:#48233C;stroke-width:2.5754;stroke-miterlimit:10;}
	.st47{fill:#4E203D;}
	.st48{clip-path:url(#SVGID_00000114075995408605954150000002023621141475694241_);}
	.st49{clip-path:url(#SVGID_00000035494018724184068380000001498209406378055335_);}
	.st50{fill:none;stroke:#FFFFFF;stroke-width:2;stroke-miterlimit:10;}
	.st51{clip-path:url(#SVGID_00000124123748340700440040000009839752041113122490_);}
	.st52{clip-path:url(#SVGID_00000149380638638692332040000006381841632084420249_);}
	.st53{fill:none;stroke:#FAEFF6;stroke-width:2.5754;stroke-miterlimit:10;}
	.st54{fill:#917787;}
	.st55{fill:#857B90;}
	.st56{fill-rule:evenodd;clip-rule:evenodd;fill:#FAEFF6;}
	.st57{fill:#C09546;}
	.st58{clip-path:url(#SVGID_00000058579454259627781700000005965356422442736531_);}
	.st59{clip-path:url(#SVGID_00000003095799935789504030000012805668388185330314_);}
	.st60{clip-path:url(#SVGID_00000014630272564572309210000007444883854284773282_);}
	.st61{fill:none;stroke:#462036;stroke-miterlimit:10;}
	.st62{fill:none;stroke:#292F36;stroke-width:2;stroke-miterlimit:10;}
	.st63{clip-path:url(#SVGID_00000081609865250558067620000014747774246361899939_);}
	.st64{clip-path:url(#SVGID_00000119092116262934595700000009047069998435186836_);}
	.st65{fill:none;stroke:#DEFF33;stroke-miterlimit:10;}
	.st66{opacity:0.8;clip-path:url(#SVGID_00000132777366478140461470000011752948846270970271_);}
	.st67{opacity:0.8;clip-path:url(#SVGID_00000031904162423380691210000010425404258766669751_);}
	.st68{clip-path:url(#SVGID_00000170272560748725128240000011182535026326047389_);}
	.st69{clip-path:url(#SVGID_00000141453987820431152190000009128048433883950996_);}
	.st70{clip-path:url(#SVGID_00000164485626597028685980000001157732678950858368_);}
	.st71{opacity:0.8;clip-path:url(#SVGID_00000106839593721694657800000002519011881100425860_);}
	.st72{clip-path:url(#SVGID_00000121265459445424455500000014039616160942762429_);}
	.st73{clip-path:url(#SVGID_00000093172880921079068480000004350569537218257035_);}
	.st74{fill:none;stroke:#FAEFF6;stroke-width:2;stroke-miterlimit:10;}
	.st75{clip-path:url(#SVGID_00000175300593410130171190000000218954254358270605_);}
	.st76{fill:none;stroke:#000000;stroke-width:4.2234;stroke-miterlimit:10;}
	.st77{fill:none;}
	.st78{clip-path:url(#SVGID_00000049214673814334474090000007294400091356771207_);}
	.st79{opacity:0.8;clip-path:url(#SVGID_00000026135268015460522270000010978860534596580737_);}
	.st80{clip-path:url(#SVGID_00000074438620960777007470000009646552742124170903_);}
	.st81{fill:#8986D3;stroke:#FFFFFF;stroke-width:2.8442;stroke-miterlimit:10;}
	.st82{clip-path:url(#SVGID_00000059990576338589103690000013220995672302829986_);}
	.st83{clip-path:url(#SVGID_00000093140740142679649330000005986766191439501478_);fill:#48233C;}
	.st84{clip-path:url(#SVGID_00000093140740142679649330000005986766191439501478_);}
	.st85{clip-path:url(#SVGID_00000161603449564192277440000012521891362971455370_);}
	.st86{clip-path:url(#SVGID_00000003816081426964735990000006498585827154599307_);}
	.st87{clip-path:url(#SVGID_00000014605462442691213930000009790646498076504487_);}
	.st88{clip-path:url(#SVGID_00000119103780463798550410000018200844910805204927_);}
	.st89{clip-path:url(#SVGID_00000110453942226855642490000005466124565648027274_);}
	.st90{opacity:0.8;clip-path:url(#SVGID_00000121237629617047973360000008215710621207593125_);}
	.st91{clip-path:url(#SVGID_00000128467326288653266620000013924306450646894255_);}
	.st92{clip-path:url(#SVGID_00000005250043765847519630000002428932297097943734_);}
	.st93{fill:none;stroke:#FAEFF6;stroke-miterlimit:10;}
	.st94{clip-path:url(#SVGID_00000139263681084781502170000011509546952077079683_);}
	.st95{clip-path:url(#SVGID_00000025439775531623854370000014611951163870602642_);}
	.st96{fill:#F3F9D2;stroke:#F3F9D2;stroke-width:4;stroke-miterlimit:10;}
	.st97{fill:#060503;}
	.st98{fill:#F3F9D2;stroke:#F3F9D2;stroke-width:2;stroke-miterlimit:10;}
	.st99{opacity:0.8;clip-path:url(#SVGID_00000024695249565309667670000017833359587894706590_);}
	.st100{clip-path:url(#SVGID_00000111907710169431452490000001805801969038290309_);}
	.st101{clip-path:url(#SVGID_00000165941123297091752850000002474583198843918220_);}
	.st102{fill:#FFFFFF;stroke:#231F20;stroke-miterlimit:10;}
	.st103{fill-rule:evenodd;clip-rule:evenodd;fill:#FAEFF6;stroke:#606060;stroke-width:1.4842;stroke-miterlimit:10;}
	.st104{fill:none;stroke:#231F20;stroke-miterlimit:10;}
</style>
<g>
	<g>
		<path class="st56" d="M0,20C0,9,9,0,20,0s20,9,20,20s-9,20-20,20S0,31,0,20z M20,9.3c-2.9,0-3.3,0-4.4,0.1
			c-1.1,0.1-1.9,0.2-2.6,0.5c-0.7,0.3-1.3,0.6-1.9,1.2c-0.6,0.6-1,1.2-1.2,1.9c-0.3,0.7-0.4,1.5-0.5,2.6c-0.1,1.1-0.1,1.5-0.1,4.4
			s0,3.3,0.1,4.4c0.1,1.1,0.2,1.9,0.5,2.6c0.3,0.7,0.6,1.3,1.2,1.9c0.6,0.6,1.2,1,1.9,1.2c0.7,0.3,1.5,0.4,2.6,0.5
			c1.1,0.1,1.5,0.1,4.4,0.1c2.9,0,3.3,0,4.4-0.1c1.1-0.1,1.9-0.2,2.6-0.5c0.7-0.3,1.3-0.6,1.9-1.2c0.6-0.6,1-1.2,1.2-1.9
			c0.3-0.7,0.4-1.5,0.5-2.6c0.1-1.1,0.1-1.5,0.1-4.4s0-3.3-0.1-4.4c-0.1-1.1-0.2-1.9-0.5-2.6c-0.3-0.7-0.6-1.3-1.2-1.9
			c-0.6-0.6-1.2-1-1.9-1.2c-0.7-0.3-1.5-0.4-2.6-0.5C23.3,9.3,22.9,9.3,20,9.3L20,9.3z"/>
		<path class="st56" d="M19,11.3c0.3,0,0.6,0,1,0c2.8,0,3.2,0,4.3,0.1c1,0,1.6,0.2,2,0.4c0.5,0.2,0.9,0.4,1.2,0.8
			c0.4,0.4,0.6,0.7,0.8,1.2c0.1,0.4,0.3,0.9,0.4,2c0.1,1.1,0.1,1.5,0.1,4.3s0,3.2-0.1,4.3c0,1-0.2,1.6-0.4,2
			c-0.2,0.5-0.4,0.9-0.8,1.2c-0.4,0.4-0.7,0.6-1.2,0.8c-0.4,0.1-0.9,0.3-2,0.4c-1.1,0.1-1.5,0.1-4.3,0.1c-2.8,0-3.2,0-4.3-0.1
			c-1,0-1.6-0.2-2-0.4c-0.5-0.2-0.9-0.4-1.2-0.8c-0.4-0.4-0.6-0.7-0.8-1.2c-0.1-0.4-0.3-0.9-0.4-2c-0.1-1.1-0.1-1.5-0.1-4.3
			s0-3.2,0.1-4.3c0-1,0.2-1.6,0.4-2c0.2-0.5,0.4-0.9,0.8-1.2c0.4-0.4,0.7-0.6,1.2-0.8c0.4-0.1,0.9-0.3,2-0.4
			C16.7,11.3,17.1,11.3,19,11.3L19,11.3z M25.7,13c-0.7,0-1.3,0.6-1.3,1.3c0,0.7,0.6,1.3,1.3,1.3c0.7,0,1.3-0.6,1.3-1.3
			S26.4,13,25.7,13z M20,14.5c-3,0-5.5,2.5-5.5,5.5c0,3,2.5,5.5,5.5,5.5s5.5-2.5,5.5-5.5C25.5,17,23,14.5,20,14.5z"/>
		<path class="st56" d="M20,16.4c2,0,3.6,1.6,3.6,3.6c0,2-1.6,3.6-3.6,3.6c-2,0-3.6-1.6-3.6-3.6C16.4,18,18,16.4,20,16.4z"/>
	</g>
</g>
</svg>
